#!OML:ASF F:\VICON\USERDATA\INSTALL\rory3\rory3.ASF
:FULLY-SPECIFIED
:DEGREES
2471
root 0.428194 17.7499 2.13664 -363.448 22.8731 356.181
lowerback 2.60203 -1.81836 -2.39642
upperback 0.760963 -2.48173 0.330358
thorax -0.560756 -1.24055 1.75333
lowerneck -20.6353 -8.39084 -13.2786
upperneck 22.4604 -9.96383 9.21589
head 11.9659 -4.51671 3.94318
rclavicle -1.15792e-014 7.95139e-016
rhumerus 25.8732 -4.96652 -21.4015
rradius 61.4885
rwrist 2.53758
rhand -30.601 4.52062
rfingers 7.12502
rthumb -3.89788 -25.4235
lclavicle -1.15792e-014 7.95139e-016
lhumerus 5.27724 8.16517 45.9889
lradius 63.1314
lwrist 19.9349
lhand -16.7111 29.535
lfingers 7.12502
lthumb 9.51411 59.3003
rfemur -9.94516 -3.21634 24.7164
rtibia 29.8235
rfoot -16.0146 -6.86783
rtoes 6.33087
lfemur -16.6071 -1.3377 -4.99327
ltibia 58.1903
lfoot -3.0254 -7.88483
ltoes -20.2677
2472
root 0.450737 17.7427 2.20519 -363.34 23.0172 356.19
lowerback 2.5667 -1.82449 -2.46994
upperback 0.650522 -2.49269 0.284701
thorax -0.652589 -1.2437 1.74912
lowerneck -20.2274 -8.46013 -13.217
upperneck 22.1735 -10.1492 9.32565
head 11.8044 -4.59329 3.94482
rclavicle -7.16215e-014 -1.59028e-014
rhumerus 25.0392 -5.65437 -21.0226
rradius 62.1478
rwrist 2.1854
rhand -30.7424 4.46727
rfingers 7.12502
rthumb -4.03441 -25.4743
lclavicle -7.16215e-014 -1.59028e-014
lhumerus 5.27455 8.96439 45.429
lradius 63.295
lwrist 19.1648
lhand -16.4073 29.2513
lfingers 7.12502
lthumb 9.80722 59.0029
rfemur -9.87295 -3.30971 24.7209
rtibia 29.9866
rfoot -16.2709 -6.83536
rtoes 5.90286
lfemur -17.0532 -1.42752 -4.85416
ltibia 57.2612
lfoot -4.45218 -7.69299
ltoes -20.325
2473
root 0.476901 17.7351 2.27212 -363.243 23.0516 356.158
lowerback 2.5673 -1.8425 -2.50856
upperback 0.475145 -2.52 0.305217
thorax -0.828856 -1.25324 1.79646
lowerneck -19.6398 -8.49704 -13.3614
upperneck 21.8559 -10.2669 9.52482
head 11.6076 -4.65281 4.03079
rclavicle -1.42543e-014 1.11319e-014
rhumerus 24.6589 -6.43434 -20.9202
rradius 62.5364
rwrist 2.01579
rhand -30.7854 4.6112
rfingers 7.12502
rthumb -4.07588 -25.3296
lclavicle -1.42543e-014 1.11319e-014
lhumerus 4.86252 9.61375 44.487
lradius 63.6948
lwrist 18.9383
lhand -16.1637 29.0214
lfingers 7.12502
lthumb 10.0422 58.7618
rfemur -9.7941 -3.30646 24.75
rtibia 30.118
rfoot -16.5124 -6.73371
rtoes 6.2357
lfemur -17.4156 -1.46687 -4.67288
ltibia 56.2173
lfoot -5.42099 -7.35623
ltoes -19.808
2474
root 0.504455 17.7255 2.33803 -363.123 23.0604 356.143
lowerback 2.50919 -1.88808 -2.56581
upperback 0.354476 -2.58201 0.346367
thorax -0.912601 -1.28174 1.8729
lowerneck -19.3445 -8.57602 -13.5571
upperneck 21.7041 -10.4013 9.72043
head 11.5362 -4.71592 4.11623
rclavicle -1.45672e-014 2.38542e-015
rhumerus 24.7447 -7.46269 -21.0519
rradius 62.7229
rwrist 2.01104
rhand -30.7098 4.82908
rfingers 7.12502
rthumb -4.00291 -25.1131
lclavicle -1.45672e-014 2.38542e-015
lhumerus 4.33767 10.2712 43.2036
lradius 64.1864
lwrist 19.133
lhand -16.4083 28.9717
lfingers 7.12502
lthumb 9.80629 58.7233
rfemur -9.71779 -3.23034 24.7655
rtibia 30.2288
rfoot -16.7937 -6.66379
rtoes 6.53741
lfemur -17.7523 -1.49699 -4.49801
ltibia 55.0803
lfoot -5.84806 -7.05761
ltoes -21.4212
2475
root 0.531081 17.7169 2.40671 -363.099 23.1052 356.103
lowerback 2.53323 -1.90386 -2.62053
upperback 0.263401 -2.60629 0.361607
thorax -1.0151 -1.29126 1.92285
lowerneck -19.0594 -8.65978 -13.656
upperneck 21.6376 -10.5663 9.86912
head 11.4949 -4.79027 4.16394
rclavicle 6.55368e-015 -4.77083e-015
rhumerus 24.3772 -8.44284 -20.6895
rradius 63.2097
rwrist 1.57013
rhand -30.7326 4.86391
rfingers 7.12502
rthumb -4.02489 -25.0778
lclavicle 6.55368e-015 -4.77083e-015
lhumerus 3.97878 10.8418 41.7779
lradius 64.5991
lwrist 19.5036
lhand -16.9468 29.0372
lfingers 7.12502
lthumb 9.28671 58.8127
rfemur -9.51959 -3.11022 24.8167
rtibia 30.3151
rfoot -17.1637 -6.72283
rtoes 6.53696
lfemur -17.9563 -1.64232 -4.27807
ltibia 53.8432
lfoot -6.34144 -6.76353
ltoes -22.9179
2476
root 0.558504 17.7084 2.47533 -363.148 23.1418 355.98
lowerback 2.58878 -1.91238 -2.60465
upperback 0.202673 -2.61962 0.358657
thorax -1.10867 -1.29598 1.91497
lowerneck -18.6586 -8.72261 -13.7006
upperneck 21.4402 -10.738 10.0711
head 11.3835 -4.86132 4.22275
rclavicle 4.23225e-014 -1.51076e-014
rhumerus 23.6341 -9.34362 -19.9443
rradius 63.9337
rwrist 0.748355
rhand -30.8016 4.80874
rfingers 7.12502
rthumb -4.09157 -25.1317
lclavicle 4.23225e-014 -1.51076e-014
lhumerus 3.87853 11.5484 40.3137
lradius 64.8487
lwrist 19.8413
lhand -17.5968 29.3717
lfingers 7.12502
lthumb 8.65949 59.1741
rfemur -9.27037 -2.91595 24.9608
rtibia 30.3869
rfoot -17.5517 -6.85114
rtoes 6.51231
lfemur -18.098 -1.77557 -3.9636
ltibia 52.5086
lfoot -6.89155 -6.31106
ltoes -23.4331
2477
root 0.589216 17.7023 2.54562 -363.175 23.1776 355.829
lowerback 2.52489 -1.95167 -2.54683
upperback 0.186875 -2.66867 0.3731
thorax -1.0885 -1.3209 1.89678
lowerneck -18.3094 -8.80503 -13.8377
upperneck 21.2027 -10.9138 10.3306
head 11.2783 -4.93432 4.31544
rclavicle -6.18345e-014 -8.74653e-015
rhumerus 23.1108 -10.39 -19.2271
rradius 64.4822
rwrist -0.0686506
rhand -31.0094 4.61432
rfingers 7.12502
rthumb -4.29226 -25.3222
lclavicle -6.18345e-014 -8.74653e-015
lhumerus 3.82384 12.4446 38.754
lradius 65.0465
lwrist 20.2145
lhand -17.1036 29.4164
lfingers 7.12502
lthumb 9.13536 59.1985
rfemur -9.02701 -2.77527 25.1219
rtibia 30.4261
rfoot -17.8509 -6.88365
rtoes 6.47093
lfemur -18.2312 -1.96415 -3.61684
ltibia 51.0714
lfoot -7.37446 -5.80007
ltoes -24.173
2478
root 0.625286 17.7015 2.62067 -363.085 23.1917 355.94
lowerback 2.42907 -1.98488 -2.68175
upperback 0.123735 -2.71537 0.326558
thorax -1.09325 -1.34295 1.92346
lowerneck -18.1739 -8.90941 -13.93
upperneck 21.2817 -11.0861 10.417
head 11.3183 -5.01445 4.33613
rclavicle 1.2839e-013 3.97569e-015
rhumerus 22.7977 -11.6183 -18.6679
rradius 64.8097
rwrist -0.703026
rhand -31.1834 4.57442
rfingers 7.12502
rthumb -4.46021 -25.3586
lclavicle 1.2839e-013 3.97569e-015
lhumerus 3.57275 13.1748 36.9666
lradius 65.3354
lwrist 20.7975
lhand -15.3509 28.9366
lfingers 7.12502
lthumb 10.8263 58.6376
rfemur -8.76293 -2.63024 25.0004
rtibia 30.465
rfoot -18.1503 -6.84852
rtoes 6.52474
lfemur -18.2196 -2.2454 -3.55893
ltibia 49.5213
lfoot -7.87806 -5.18914
ltoes -24.7488
2479
root 0.666197 17.7028 2.69557 -362.96 23.1716 356.134
lowerback 2.34599 -2.02615 -2.84904
upperback 0.0415066 -2.77467 0.230774
thorax -1.12485 -1.37047 1.91901
lowerneck -18.1144 -8.9917 -13.8365
upperneck 21.4931 -11.2334 10.3166
head 11.3938 -5.08654 4.26129
rclavicle 2.14687e-014 5.56597e-015
rhumerus 22.5338 -12.9642 -18.2731
rradius 65.1259
rwrist -1.41061
rhand -31.0171 4.90648
rfingers 7.12502
rthumb -4.29968 -25.0299
lclavicle 2.14687e-014 5.56597e-015
lhumerus 3.30614 13.9406 34.9741
lradius 65.5509
lwrist 21.5291
lhand -14.8532 28.9509
lfingers 7.12502
lthumb 11.3064 58.6261
rfemur -8.48848 -2.49072 24.7812
rtibia 30.5041
rfoot -18.4295 -6.93582
rtoes 6.05136
lfemur -18.127 -2.55881 -3.59634
ltibia 47.8829
lfoot -8.24808 -4.58124
ltoes -24.5606
